<?xml version="1.0" standalone="no"?>
<!DOCTYPE svg PUBLIC "-//W3C//DTD SVG 20010904//EN"
 "http://www.w3.org/TR/2001/REC-SVG-20010904/DTD/svg10.dtd">
<svg version="1.0" xmlns="http://www.w3.org/2000/svg"
 width="324.000000pt" height="324.000000pt" viewBox="0 0 324.000000 324.000000"
 preserveAspectRatio="xMidYMid meet">
<metadata>
Created by potrace 1.11, written by Peter Selinger 2001-2013
</metadata>
<g transform="translate(0.000000,324.000000) scale(0.100000,-0.100000)"
fill="#000000" stroke="none">
<path d="M64 3230 c-31 -5 -24 -13 352 -389 211 -211 384 -377 385 -370 4 86
0 751 -4 755 -7 8 -689 11 -733 4z"/>
<path d="M853 3232 l-23 -3 0 -387 0 -387 385 385 c211 211 382 386 380 388
-5 5 -710 8 -742 4z"/>
<path d="M1680 3230 c0 -3 173 -178 384 -389 l385 -385 0 387 c0 357 -1 387
-17 388 -97 3 -752 3 -752 -1z"/>
<path d="M2483 3226 c-8 -12 -7 -745 0 -753 4 -3 176 164 383 371 207 207 374
379 371 382 -10 10 -748 10 -754 0z"/>
<path d="M9 3189 c-1 -29 -1 -718 0 -739 1 -13 49 -15 376 -14 206 0 378 4
381 7 4 4 -165 178 -375 388 -308 309 -381 377 -382 358z"/>
<path d="M1655 2825 c0 -256 3 -385 10 -386 5 0 180 -1 387 -2 l378 -2 -387
388 c-214 213 -388 387 -388 387 0 0 0 -173 0 -385z"/>
<path d="M1235 2820 c-209 -209 -378 -380 -375 -381 7 -1 720 -1 745 0 20 1
21 6 20 381 0 209 -2 380 -5 380 -3 0 -176 -171 -385 -380z"/>
<path d="M830 2024 c0 -211 2 -384 4 -384 4 0 735 730 755 754 11 13 -31 15
-373 14 l-386 0 0 -384z"/>
<path d="M1235 2000 c-209 -209 -378 -381 -375 -381 16 -5 760 -4 761 1 4 18
3 760 -1 760 -3 0 -176 -171 -385 -380z"/>
<path d="M864 1581 c-2 -3 165 -175 373 -383 207 -207 379 -375 383 -372 7 7
7 754 0 755 -16 4 -752 4 -756 0z"/>
<path d="M830 1175 l0 -385 387 0 388 0 -385 385 c-212 212 -386 385 -387 385
-2 0 -3 -173 -3 -385z"/>
<path d="M840 762 c-12 -4 -14 -762 -2 -762 11 0 768 760 757 761 -37 2 -747
3 -755 1z"/>
</g>
</svg>
